<svg xmlns="http://www.w3.org/2000/svg" xmlns:xlink="http://www.w3.org/1999/xlink" viewBox="0 0 342 302"><defs><linearGradient id="b" x1="171" y1="302" x2="171" y2="0" gradientUnits="userSpaceOnUse"><stop offset="0" stop-color="#7c7b7b"/><stop offset=".14" stop-color="#272626"/><stop offset=".7" stop-color="#0f0f0f"/><stop offset="1" stop-color="#0f0f0f"/></linearGradient><linearGradient id="c" y1="301.17" y2=".83" xlink:href="#b"/><linearGradient id="d" y1="300.33" y2="1.67" xlink:href="#b"/><linearGradient id="e" y1="299.5" y2="2.5" xlink:href="#b"/><linearGradient id="f" x1="171" y1="298.67" x2="171" y2="3.33" xlink:href="#b"/><linearGradient id="g" x1="171" y1="297.83" x2="171" y2="4.17" xlink:href="#b"/><linearGradient id="h" y1="297" y2="5" xlink:href="#b"/><linearGradient id="j" x1="171" y1="291" x2="171" y2="11" gradientUnits="userSpaceOnUse"><stop offset="0" stop-color="#111"/><stop offset=".97" stop-color="#141414"/><stop offset="1" stop-color="#333"/></linearGradient><linearGradient id="k" x1="171" y1="285" x2="171" y2="17" gradientUnits="userSpaceOnUse"><stop offset="0" stop-color="#242424"/><stop offset="1" stop-color="#303030"/></linearGradient><linearGradient id="l" x1="171" y1="232.53" x2="171" y2="188.53" gradientUnits="userSpaceOnUse"><stop offset="0" stop-color="#333"/><stop offset="1" stop-color="#111"/></linearGradient><linearGradient id="m" x1="171" y1="36.53" x2="171" y2="210" gradientUnits="userSpaceOnUse"><stop offset="0" stop-color="#141414"/><stop offset=".85" stop-color="#1f2020"/><stop offset="1" stop-color="#434343"/></linearGradient><linearGradient id="n" x1="171" y1="36.53" x2="171" y2="210" gradientUnits="userSpaceOnUse"><stop offset="0" stop-color="#141414"/><stop offset=".75" stop-color="#797979"/><stop offset=".83" stop-color="#2b2c2b"/><stop offset="1" stop-color="#434343"/></linearGradient><linearGradient id="o" x1="171" y1="208" x2="171" y2="38.53" gradientUnits="userSpaceOnUse"><stop offset="0" stop-color="#c4c0bb"/><stop offset="1" stop-color="#413e3b"/></linearGradient><linearGradient id="p" x1="171" y1="208" x2="171" y2="38.53" gradientUnits="userSpaceOnUse"><stop offset="0" stop-color="#969390"/><stop offset="1" stop-color="#252221"/></linearGradient><linearGradient id="q" x1="41.73" y1="54.52" x2="41.73" y2="26.52" gradientUnits="userSpaceOnUse"><stop offset="0" stop-color="#555554"/><stop offset=".27" stop-color="#272626"/><stop offset="1" stop-color="#0c0c0c"/></linearGradient><linearGradient id="t" x1="300.27" x2="300.27" xlink:href="#q"/><linearGradient id="w" y1="275.17" y2="247.17" xlink:href="#q"/><linearGradient id="a`" x1="300.27" y1="275.17" x2="300.27" y2="247.17" xlink:href="#q"/><linearGradient id="ac" x1="171" y1="208" x2="171" y2="140.53" gradientUnits="userSpaceOnUse"><stop offset="0" stop-color="#191918"/><stop offset=".11" stop-color="#2d2f34"/><stop offset=".5" stop-color="#1e2123"/><stop offset=".74" stop-color="#111"/><stop offset="1" stop-color="#010101"/></linearGradient><linearGradient id="ad" x1="95.21" y1="86.29" x2="140.21" y2="161.29" gradientTransform="rotate(31.56 117.29 123.105)" gradientUnits="userSpaceOnUse"><stop offset="0" stop-color="#c9c9c9"/><stop offset=".85" stop-color="#a1a0a0"/><stop offset="1" stop-color="#010101"/></linearGradient><linearGradient id="ae" x1="171" y1="230.53" x2="171" y2="190.53" gradientUnits="userSpaceOnUse"><stop offset="0" stop-color="#111"/><stop offset="1" stop-color="#333"/></linearGradient><linearGradient id="af" x1="-25.25" y1="757.71" x2="-25.25" y2="747.46" gradientTransform="translate(196.25 -556.03)" gradientUnits="userSpaceOnUse"><stop offset="0" stop-color="#010101"/><stop offset="1" stop-color="#fff"/></linearGradient><linearGradient id="ag" x1="171" y1="205" x2="171" y2="43.53" xlink:href="#af"/><radialGradient id="i" cx="88.3" cy="291.84" fx="88.3" fy="291.84" r="8.55" gradientTransform="matrix(16.05 0 0 .77 -1245.99 71.58)" gradientUnits="userSpaceOnUse"><stop offset="0" stop-color="#fff"/><stop offset="1" stop-color="#010101"/></radialGradient><radialGradient id="r" cx="-3.83" cy="54.14" fx="-3.83" fy="54.14" r="11.15" gradientTransform="rotate(-10.01 -73.524 -211.536)" gradientUnits="userSpaceOnUse"><stop offset=".28" stop-color="#9ca1a7"/><stop offset=".56" stop-color="#767a83"/><stop offset=".83" stop-color="#41464e"/><stop offset=".92" stop-color="#545d67"/><stop offset="1" stop-color="#41464e"/></radialGradient><radialGradient id="s" cx="-3.83" cy="54.43" fx="-3.83" fy="54.43" r="8.29" gradientTransform="rotate(-10.01 -73.524 -211.536)" gradientUnits="userSpaceOnUse"><stop offset="0" stop-color="#454c52"/><stop offset=".48" stop-color="#3e454c"/><stop offset=".64" stop-color="#434a52"/><stop offset=".86" stop-color="#535a65"/><stop offset="1" stop-color="#606874"/></radialGradient><radialGradient id="u" cx="250.75" cy="99.1" fx="250.75" fy="99.1" r="11.15" xlink:href="#r"/><radialGradient id="v" cx="250.75" cy="99.38" fx="250.75" fy="99.38" r="8.29" xlink:href="#s"/><radialGradient id="x" cx="-42.2" cy="271.42" fx="-42.2" fy="271.42" r="11.15" xlink:href="#r"/><radialGradient id="y" cx="-42.2" cy="271.7" fx="-42.2" fy="271.7" r="8.29" xlink:href="#s"/><radialGradient id="aa" cx="212.38" cy="316.37" fx="212.38" fy="316.37" r="11.15" xlink:href="#r"/><radialGradient id="ab" cx="212.38" cy="316.66" fx="212.38" fy="316.66" r="8.29" xlink:href="#s"/><style>.bg{fill:#fff}.bm,.bo,.br{fill:#010101}.bt{fill:#676767}.bv{fill:#89181a}.br{opacity:.25}.ca{opacity:.75}</style></defs><g style="isolation:isolate"><g id="a"><g class="by"><path class="bm" d="M240.03 208c-8.3 0-14.34-7.21-16.63-14.35-7.34-22.83-28.4-38.17-52.4-38.17s-45.06 15.34-52.4 38.17c-2.3 7.14-8.33 14.35-16.63 14.35H52c-9.93 0-18-8.08-18-18v-82.71c0-13.19 8.64-29.58 18.87-35.79C88.39 49.93 129.24 38.53 171 38.53s82.61 11.4 118.13 32.97C299.36 77.71 308 94.1 308 107.29V190c0 9.92-8.08 18-18 18h-49.97Z"/><path d="M240.03 207.67c-7.97 0-13.78-6.97-16-13.89-7.43-23.11-28.75-38.63-53.03-38.63s-45.6 15.52-53.03 38.63c-2.22 6.91-8.03 13.89-16 13.89H52c-9.56 0-17.33-7.78-17.33-17.33v-82.72c0-12.95 8.52-29.13 18.55-35.22C88.64 50.9 129.37 39.53 171 39.53S253.37 50.9 288.79 72.4c10.03 6.09 18.55 22.27 18.55 35.22v82.71c0 9.56-7.78 17.33-17.33 17.33h-49.97Z" style="opacity:.83;fill:#010101"/><path d="M240.03 207.33c-7.63 0-13.21-6.74-15.36-13.42-7.52-23.38-29.09-39.09-53.67-39.09s-46.15 15.71-53.67 39.09c-2.15 6.68-7.73 13.42-15.36 13.42H52c-9.19 0-16.67-7.48-16.67-16.67v-82.71c0-12.72 8.4-28.69 18.23-34.65C88.87 51.86 129.48 40.53 171 40.53s82.13 11.33 117.44 32.77c9.83 5.97 18.23 21.94 18.23 34.65v82.71c0 9.19-7.48 16.67-16.67 16.67h-49.97Z" style="opacity:.67;fill:#010101"/><path class="bo" d="M240.03 207c-7.29 0-12.65-6.51-14.73-12.96-7.61-23.66-29.43-39.56-54.3-39.56s-46.69 15.9-54.3 39.56c-2.08 6.45-7.44 12.96-14.73 12.96H52c-8.82 0-16-7.18-16-16v-82.71c0-12.48 8.28-28.24 17.91-34.08C89.12 52.83 129.61 41.53 171 41.53s81.88 11.3 117.09 32.68c9.63 5.85 17.91 21.6 17.91 34.08V191c0 8.82-7.18 16-16 16h-49.97Z"/><path d="M240.03 206.67c-6.96 0-12.09-6.28-14.1-12.5-7.7-23.94-29.78-40.02-54.94-40.02s-47.24 16.08-54.94 40.02c-2 6.22-7.14 12.5-14.1 12.5H52c-8.45 0-15.33-6.88-15.33-15.33v-82.72c0-12.24 8.16-27.79 17.59-33.51 35.1-21.31 75.48-32.58 116.75-32.58s81.64 11.27 116.75 32.58c9.43 5.72 17.59 21.27 17.59 33.51v82.71c0 8.45-6.88 15.33-15.33 15.33h-49.97Z" style="opacity:.33;fill:#010101"/><path d="M240.03 206.33c-6.62 0-11.53-6.05-13.46-12.04-7.79-24.21-30.12-40.48-55.57-40.48s-47.78 16.27-55.57 40.48c-1.93 5.99-6.84 12.04-13.46 12.04H52c-8.09 0-14.67-6.58-14.67-14.67v-82.71c0-12 8.04-27.34 17.27-32.94 35-21.25 75.25-32.48 116.4-32.48s81.4 11.23 116.4 32.48c9.23 5.6 17.27 20.94 17.27 32.94v82.71c0 8.09-6.58 14.67-14.67 14.67h-49.97Z" style="opacity:.17;fill:#010101"/></g><g class="ca"><rect x=".83" y=".83" width="340.33" height="300.33" rx="36.17" ry="36.17" style="fill:url(#c);opacity:.17"/><rect x="1.67" y="1.67" width="338.67" height="298.67" rx="35.33" ry="35.33" style="opacity:.33;fill:url(#d)"/><rect class="c`" x="2.5" y="2.5" width="337" height="297" rx="34.5" ry="34.5"/><rect x="3.33" y="3.33" width="335.33" height="295.33" rx="33.67" ry="33.67" style="opacity:.67;fill:url(#f)"/><rect x="4.17" y="4.17" width="333.67" height="293.67" rx="32.83" ry="32.83" style="opacity:.83;fill:url(#g)"/><rect x="5" y="5" width="332" height="292" rx="32" ry="32" style="fill:url(#h)"/></g><path d="M308.15 295.07c0 3.62-61.4 6.54-137.15 6.54s-137.15-2.93-137.15-6.54 61.4-6.54 137.15-6.54 137.15 2.93 137.15 6.54Z" style="fill:url(#i);opacity:.2;mix-blend-mode:screen"/><rect class="bm" x="9" y="9" width="324" height="284" rx="28" ry="28"/><rect x="11" y="11" width="320" height="280" rx="26" ry="26" style="fill:url(#j)"/><rect x="17" y="17" width="308" height="268" rx="20" ry="20" style="fill:url(#k)"/><path d="M305 283H37c-11.03 0-20-8.97-20-20v2c0 11.03 8.97 20 20 20h268c11.03 0 20-8.97 20-20v-2c0 11.03-8.97 20-20 20Z" style="fill:#2e2e2e"/><path class="bt" d="M305 17H37c-11.03 0-20 8.97-20 20v2c0-11.03 8.97-20 20-20h268c11.03 0 20 8.97 20 20v-2c0-11.03-8.97-20-20-20Z"/><circle cx="171" cy="210.53" r="22" style="fill:url(#l)"/><circle class="bm" cx="171" cy="210.53" r="20.5"/><path d="M240.03 210H290c11.05 0 20-8.95 20-20v-82.71c0-13.25-8.5-30.62-19.83-37.5-34.75-21.1-75.54-33.26-119.17-33.26S86.59 48.69 51.83 69.79C40.5 76.67 32 94.04 32 107.29V190c0 11.05 8.95 20 20 20h49.97c8.84 0 15.83-7.32 18.54-15.74 6.87-21.34 26.87-36.78 50.5-36.78s43.63 15.44 50.5 36.78c2.71 8.41 9.7 15.74 18.54 15.74Z" style="fill:url(#m)"/><path d="M109.5 107.53v100.58c5.19-2.71 9.13-8.01 11-13.85 6.87-21.34 26.87-36.78 50.5-36.78s43.63 15.44 50.5 36.78c1.88 5.83 5.82 11.14 11 13.85V107.53h-123Z" style="fill:url(#n)"/><path d="M240.03 208c-8.3 0-14.34-7.21-16.63-14.35-7.34-22.83-28.4-38.17-52.4-38.17s-45.06 15.34-52.4 38.17c-2.3 7.14-8.33 14.35-16.63 14.35H52c-9.93 0-18-8.08-18-18v-82.71c0-13.19 8.64-29.58 18.87-35.79C88.39 49.93 129.24 38.53 171 38.53s82.61 11.4 118.13 32.97C299.36 77.71 308 94.1 308 107.29V190c0 9.92-8.08 18-18 18h-49.97Z" style="fill:url(#o)"/><g class="ca"><path class="bv" d="m281.19 140.39-1.09-1.68 11.51-7.45a144.743 144.743 0 0 0-56.62-50.12l-6 12.36-1.8-.87 6.52-13.39.49-.68.77.35a146.766 146.766 0 0 1 58.87 52.11l.55.84-13.2 8.54Z"/><path class="bm" transform="rotate(-47.08 69.957 116.574)" d="M69.45 109.21h1v14.72h-1z"/><path class="bm" transform="rotate(-37.08 87.802 100.45)" d="M87.3 93.09h1v14.72h-1z"/><path class="bm" transform="rotate(-27.08 108.184 87.67)" d="M107.68 80.32h1v14.72h-1z"/><path class="bm" transform="rotate(-17.08 130.477 78.632)" d="M129.97 71.27h1v14.72h-1z"/><path class="bm" transform="rotate(-7.08 153.979 73.62)" d="M153.49 66.24h1v14.72h-1z"/><path class="bm" transform="rotate(-87.09 178.018 72.724)" d="M170.66 72.22h14.72v1h-14.72z"/><path class="bm" transform="rotate(-77.07 201.85 76.031)" d="M194.48 75.54h14.72v1h-14.72z"/><path class="bm" d="M61.08 139.97 48.3 131.7l.27-.42C75.62 89.59 121.38 64.7 171 64.7c19.56 0 38.54 3.81 56.43 11.32l.82.39-5.92 14-.92-.39 5.55-13.12c-17.72-7.43-36.55-11.21-55.95-11.21-49.11 0-94.42 24.55-121.31 65.7l11.94 7.73-.54.84Z"/><path class="bm" transform="rotate(-57.08 52.778 134.002)" d="M52.27 129.49h1v9h-1z"/><path class="bv" d="M236.99 85.95a141.554 141.554 0 0 1 34.8 26.08l-5.12 4.76a134.049 134.049 0 0 0-32.76-24.55l3.08-6.29Zm-.89-2.72-4.84 9.88c13.23 6.82 25.16 15.8 35.33 26.49l8.05-7.49c-11.08-11.66-24.1-21.47-38.55-28.88Z"/><path d="m280.39 136.73 9.23-5.98c-3.91-5.8-8.24-11.3-12.94-16.45l-8.05 7.49c4.26 4.69 8.19 9.68 11.76 14.94Z" style="fill:#b41f24"/></g><g class="ca"><path class="bm" d="M62.25 186.3c0-.6-.01-1.09-.05-1.57h.92l.05.94h.04c.32-.55.86-1.07 1.82-1.07.79 0 1.39.48 1.64 1.16h.02c.18-.32.41-.58.65-.76.35-.26.73-.41 1.28-.41.77 0 1.91.5 1.91 2.52v3.42H69.5v-3.29c0-1.12-.41-1.79-1.26-1.79-.6 0-1.07.44-1.25.96-.05.14-.08.34-.08.53v3.59h-1.03v-3.48c0-.92-.41-1.6-1.21-1.6-.66 0-1.14.53-1.31 1.06-.06.16-.08.34-.08.52v3.5h-1.03v-4.23ZM73.43 183.09c.01.36-.25.65-.67.65-.37 0-.64-.29-.64-.65s.28-.66.66-.66.65.29.65.66Zm-1.18 7.44v-5.8h1.06v5.8h-1.06ZM75.07 186.3c0-.6-.01-1.09-.05-1.57h.94l.06.96h.02c.29-.55.96-1.09 1.92-1.09.8 0 2.05.48 2.05 2.47v3.47h-1.06v-3.35c0-.94-.35-1.71-1.34-1.71-.7 0-1.24.49-1.41 1.08-.05.13-.07.31-.07.49v3.49h-1.06v-4.23Z"/></g><g class="ca"><path class="bm" d="M260.15 186.3c0-.6-.01-1.09-.05-1.57h.92l.05.94h.04c.32-.55.86-1.07 1.82-1.07.79 0 1.39.48 1.64 1.16h.02c.18-.32.41-.58.65-.76.35-.26.73-.41 1.28-.41.77 0 1.91.5 1.91 2.52v3.42h-1.03v-3.29c0-1.12-.41-1.79-1.26-1.79-.6 0-1.07.44-1.25.96-.05.14-.08.34-.08.53v3.59h-1.03v-3.48c0-.92-.41-1.6-1.21-1.6-.66 0-1.14.53-1.31 1.06-.06.16-.08.34-.08.52v3.5h-1.03v-4.23ZM273.37 190.53l-.08-.73h-.04c-.32.46-.95.86-1.77.86-1.18 0-1.77-.83-1.77-1.67 0-1.4 1.25-2.17 3.49-2.16v-.12c0-.48-.13-1.34-1.32-1.34-.54 0-1.1.17-1.51.43l-.24-.7c.48-.31 1.18-.52 1.91-.52 1.77 0 2.21 1.21 2.21 2.37v2.17c0 .5.02 1 .1 1.39h-.96Zm-.16-2.96c-1.15-.02-2.46.18-2.46 1.31 0 .68.46 1.01 1 1.01.76 0 1.24-.48 1.4-.97.04-.11.06-.23.06-.34v-1.01ZM276.44 184.72l.83 1.25c.22.32.4.62.59.95h.04c.19-.35.38-.65.58-.96l.82-1.24h1.14l-1.98 2.81 2.04 3h-1.2l-.85-1.31c-.23-.34-.42-.66-.62-1.01h-.02c-.19.35-.39.66-.61 1.01l-.84 1.31h-1.16l2.06-2.96-1.97-2.84h1.18Z"/></g><g class="ca"><path class="bm" d="M153.02 118.18c-.9 1.06-2.1 1.88-3.57 2.45-1.48.57-3.07.82-4.76.74-.04.33-.06.66-.06.97 0 1.75.61 2.79 1.83 3.11.26.07.51.11.75.11 1.54 0 2.79-1.09 3.77-3.26.14-.23.42-.34.82-.34.16 0 .24.22.24.65s-.22 1.06-.65 1.92a8.88 8.88 0 0 1-1.85 2.48c-1.22 1.16-2.57 1.75-4.05 1.75-.79 0-1.59-.16-2.41-.5-1.84-.75-2.76-2.35-2.76-4.81 0-.94.14-1.91.41-2.94-1.84-.78-2.76-1.95-2.76-3.54 0-.3.04-.62.11-.95.14-.7.66-1.33 1.55-1.88.85-.53 1.69-.78 2.52-.73.82.03 1.69.29 2.6.78 2.24-2.01 4.24-2.99 6.01-2.93 2.57.07 3.85 1.1 3.85 3.08 0 1.32-.53 2.6-1.59 3.84Zm-11.97 1.25c.6-1.65 1.56-3.14 2.88-4.47-.73-.3-1.41-.45-2.05-.45-.98 0-1.76.37-2.35 1.1-.32.39-.47.83-.47 1.34 0 .98.66 1.8 1.98 2.48Zm6.27-3.62c.47.39.92.79 1.34 1.21.19.25.15.46-.11.65-.1.06-.2.09-.3.09-.16 0-.29-.07-.39-.22-.16-.22-.52-.55-1.08-.99-.3.41-.58.82-.84 1.22-.43.64-.78 1.49-1.06 2.53 1.36-.09 2.68-.57 3.96-1.44 1.06-.72 1.97-1.61 2.71-2.67.66-.96.99-1.72.99-2.28a.73.73 0 0 0-.06-.32c-.33-.57-.76-.86-1.29-.86-.96 0-2.25 1.03-3.88 3.08ZM161.13 119.24c.29-.57.43-.87.43-.88.21-.49.48-.78.81-.86.23-.06.58.17 1.07.69.38.42.58.82.58 1.21 0 .27-.16.73-.5 1.36-.37.73-.94 1.82-1.7 3.26-.29.53-.43.99-.43 1.36 0 .25.05.4.15.45.1.06.42-.13.95-.56.47-.39.85-.75 1.14-1.08.17-.2.28-.3.32-.3.09 0 .19.07.3.22.11.14.17.27.17.37 0 .13-.09.29-.28.49-.19.19-.38.4-.58.61-.3.33-.84.83-1.63 1.5-.78.67-1.31 1.09-1.58 1.26-.49.3-.96.45-1.42.45-.36 0-.69-.1-.98-.31-.29-.21-.44-.53-.44-.96 0-.22.04-.45.11-.71-.8.68-1.47 1.16-2 1.47-.53.3-1.06.45-1.59.45s-.97-.17-1.31-.5c-.35-.33-.52-.75-.52-1.27s.14-1.06.41-1.62c-.32.03-.52 0-.6-.08-.09-.08-.13-.3-.13-.68 0-.09.13-.24.38-.47.25-.23.49-.45.72-.67.36-.3.91-.88 1.64-1.75.45-.63.84-1.11 1.19-1.45.63-.57 1.37-.98 2.2-1.23.37-.11.78-.17 1.23-.17.79 0 1.42.14 1.9.41Zm-4.61 6.67c.3 0 .74-.29 1.31-.88.43-.46.8-.92 1.1-1.36.69-1.05 1.03-1.84 1.03-2.37 0-.34-.14-.52-.43-.52-.39 0-1.11.74-2.18 2.22-.82 1.15-1.23 1.96-1.23 2.44 0 .32.13.47.39.47Z"/><path class="bm" d="M166.28 120.6c-.33-.27-.49-.61-.49-1.01 0-.33.11-.71.32-1.14.36-.69.88-1.04 1.57-1.04.26 0 .48.07.66.21.18.14.27.37.27.67s-.09.63-.26.99c.37.22.93.2 1.68-.04.63-.22 1.08-.32 1.33-.32.39 0 .62.17.69.5.03.12.04.23.04.35 0 .25-.07.51-.22.81-.14.29-.29.58-.43.85-.47 1.01-1 2.17-1.59 3.5-.17.47-.17.76 0 .86.24 0 .46-.12.65-.37.34-.32.78-.73 1.29-1.25.14-.2.34-.3.58-.3.14 0 .24.04.3.13.11.11.17.22.17.3 0 .1-.13.31-.39.63-1.38 1.67-2.79 2.86-4.24 3.56-.4.2-.79.3-1.16.3-.55 0-.98-.19-1.3-.58-.32-.39-.46-.79-.42-1.21.1-.91.83-2.21 2.2-3.93.53-.66.8-1.18.8-1.55s-.31-.54-.93-.54c-1.55 2.03-2.66 3.37-3.32 4.01-.25.25-.5.28-.75.11-.11-.06-.17-.15-.17-.28s.06-.25.17-.35c.62-.69 1.1-1.25 1.44-1.68.59-.75 1.09-1.47 1.51-2.18Z"/><path class="bm" d="M179.54 126.36c-1.45 1.6-2.78 2.39-4 2.39-.86 0-1.52-.34-1.96-1.01a2.9 2.9 0 0 1-.5-1.66c0-.37.24-1.06.73-2.07.37-.73.75-1.47 1.12-2.2-.63.85-1.35 1.78-2.15 2.8-.36.36-.63.54-.8.54-.11 0-.23-.06-.34-.18a.503.503 0 0 1-.17-.36c0-.13.14-.32.41-.58 1.42-1.37 2.66-2.94 3.7-4.73.88-1.62 1.87-3.4 2.97-5.33.1-.19.21-.37.32-.54.1-.13.27-.17.5-.13.42.06.76.31 1.03.75.33.52.5.93.5 1.23 0 .34-.64 1.83-1.92 4.44-.63 1.27-1.27 2.52-1.92 3.78-.7 1.41-1.07 2.26-1.1 2.57 0 .6.28.91.84.91.6 0 1.13-.37 1.59-1.12 0-.03.03-.07.09-.13s.09-.11.09-.15c-.24-.39-.37-.87-.37-1.45 0-.82.24-1.74.73-2.76.43-.91.98-1.63 1.64-2.18.26-.22.53-.32.82-.32.32 0 .59.11.82.32.23.21.34.47.34.78 0 .94-.14 1.74-.43 2.42-.22.52-.37.87-.47 1.06-.24.45-.59.98-1.03 1.6.07.12.19.13.34.04.06-.01.12-.05.19-.11.23-.2.46-.41.69-.63.37-.33.62-.5.73-.5.1 0 .23.06.39.19.07.06.11.13.11.22 0 .34-.5.93-1.51 1.77-.39.32-.8.48-1.23.48-.26 0-.52-.05-.8-.15Z"/><path class="bm" d="M192.05 123.86c.23.09.34.2.34.35 0 .16-.12.37-.34.62-.73.98-1.58 1.5-2.54 1.58-.32.03-.58-.01-.8-.13-1.26 1.67-2.67 2.5-4.22 2.5-.73 0-1.31-.24-1.74-.71-.43-.47-.65-1.11-.65-1.92 0-.34.04-.71.13-1.08-.06.06-.13.09-.22.09-.29 0-.43-.14-.43-.43 0-.14.06-.28.17-.41.7-.89 1.46-1.76 2.28-2.62 1.26-1.36 2.38-2.27 3.36-2.71.55-.26 1.08-.39 1.59-.39.98 0 1.63.5 1.96 1.48.07.22.11.47.11.75 0 .96-.36 2.15-1.08 3.57.17.1.26.3.26.6.49-.12.87-.42 1.16-.93.22-.22.43-.29.65-.22Zm-6.09 2.74c.1.04.2.07.3.07.46 0 .87-.41 1.23-1.23-.19-.33-.28-.67-.28-1.01 0-.2.04-.39.11-.56.19-.47.65-.65 1.4-.52.56-1.08.84-1.88.84-2.42 0-.4-.19-.6-.58-.6-.57 0-1.35.9-2.33 2.7-.75 1.35-1.12 2.29-1.12 2.83 0 .37.14.62.43.75Z"/><path class="bm" d="M191.23 125.3c-.17 0-.26-.06-.26-.17s.07-.29.22-.52c.75-.92 1.67-2.11 2.78-3.56 1.06-1.64 1.78-2.42 2.15-2.33.26.06.52.22.79.5.27.27.43.54.48.8.13.56.13 1.07 0 1.51-.07.26-.34.73-.8 1.4.5-.49.97-.93 1.4-1.32 1.02-.94 1.77-1.55 2.26-1.83.31-.2.64-.4.97-.61.33-.2.62-.3.86-.3.39 0 .76.24 1.12.73.06.09.09.19.09.32 0 .34-.34 1.16-1.01 2.46-.95 1.81-1.42 2.88-1.42 3.19 0 .14.06.22.17.22.37 0 .95-.34 1.72-1.01.01-.01.17-.2.47-.56.2-.25.37-.37.5-.37.2 0 .3.15.3.45 0 .26-.18.58-.53.97-.35.39-.96.95-1.82 1.68-.98.84-1.64 1.33-1.99 1.48-.35.15-.72.23-1.11.23-.83 0-1.3-.32-1.4-.97-.1-.63.55-2.26 1.96-4.9.06-.1.09-.19.09-.26s-.05-.11-.15-.11c-.24 0-.51.14-.79.42-.28.28-.81.88-1.6 1.8-.9 1.05-1.53 1.82-1.87 2.31-.34.49-.78.92-1.29 1.29-.52.37-.97.55-1.36.55-.52 0-.78-.27-.78-.8 0-.25.12-.55.34-.93.36-.59.55-.91.56-.95.26-.53.89-1.8 1.89-3.8-1.68 1.99-2.66 2.98-2.95 2.98Z"/></g><path d="M289.13 71.5C253.61 49.93 212.76 38.53 171 38.53S88.39 49.93 52.87 71.5C42.64 77.71 34 94.1 34 107.29V190c0 9.92 8.07 18 18 18h1.27C47.24 205.43 43 199.42 43 192.43v-77.67c0-12.39 8.07-27.78 17.63-33.61C93.82 60.9 131.98 50.19 171 50.19s77.18 10.7 110.37 30.96c9.56 5.83 17.63 21.22 17.63 33.61v77.67c0 6.99-4.24 13-10.27 15.57H290c9.92 0 18-8.08 18-18v-82.71c0-13.19-8.64-29.58-18.87-35.79Z" style="fill:url(#p)"/><circle cx="41.73" cy="40.52" r="14" style="fill:url(#q)"/><circle class="bm" cx="41.73" cy="40.52" r="10"/><path d="M43.37 49.8c-5.12.9-10.02-2.53-10.92-7.65-.9-5.12 2.53-10.02 7.65-10.92 5.12-.9 10.02 2.53 10.92 7.65.9 5.12-2.53 10.02-7.65 10.92Z" style="fill:url(#r)"/><path class="bg" d="m48.43 43.61-4.21-2.95 2.95-4.21-2.81-1.97-2.95 4.21-4.21-2.94-1.97 2.8 4.22 2.95-2.95 4.22 2.81 1.96 2.94-4.21 4.22 2.95 1.96-2.81z"/><path style="fill:url(#s)" d="m48.33 43.05-4.21-2.95 2.95-4.22-2.81-1.96-2.95 4.21-4.21-2.95-1.97 2.81 4.22 2.95-2.95 4.21 2.81 1.97 2.95-4.21 4.21 2.95 1.96-2.81z"/><path class="br" d="m41.41 38.69 2.95-4.21 2.48 1.73.23-.33-2.81-1.96-2.95 4.21-4.21-2.95-1.97 2.81.33.23 1.74-2.47 4.21 2.94z"/><path class="br" transform="rotate(-55.01 37.922 43.328)" d="M35.55 43.13h4.74v.4h-4.74z"/><path class="br" transform="rotate(-54.98 46.286 41.851)" d="M46.08 39.48h.4v4.74h-.4z"/><path d="M300.27 54.52c-7.72 0-14-6.28-14-14s6.28-14 14-14 14 6.28 14 14-6.28 14-14 14Z" style="fill:url(#t)"/><circle class="bm" cx="300.27" cy="40.52" r="10"/><path d="M301.91 49.8c-5.12.9-10.02-2.53-10.93-7.65-.9-5.12 2.53-10.02 7.65-10.92 5.12-.9 10.02 2.53 10.92 7.65.9 5.12-2.53 10.02-7.64 10.92Z" style="fill:url(#u)"/><path class="bg" d="m306.97 43.61-4.22-2.95 2.95-4.21-2.81-1.97-2.95 4.21-4.21-2.94-1.97 2.8 4.22 2.95-2.95 4.22 2.81 1.96 2.95-4.21 4.21 2.95 1.97-2.81z"/><path style="fill:url(#v)" d="m306.87 43.05-4.22-2.95 2.95-4.22-2.81-1.96-2.94 4.21-4.22-2.95-1.96 2.81 4.21 2.95-2.95 4.21 2.81 1.97 2.95-4.21 4.21 2.95 1.97-2.81z"/><path class="br" d="m299.94 38.69 2.95-4.21 2.48 1.73.23-.33-2.81-1.96-2.94 4.21-4.22-2.95-1.96 2.81.33.23 1.73-2.47 4.21 2.94zM297.65 41.27l-2.72 3.88.33.24 2.72-3.89-.33-.23zM306.63 43.38l.24-.33-3.89-2.72-.23.33 3.88 2.72z"/><circle cx="41.73" cy="261.17" r="14" style="fill:url(#w)"/><circle class="bm" cx="41.73" cy="261.17" r="10"/><path d="M43.37 270.45c-5.12.9-10.02-2.53-10.92-7.65-.9-5.12 2.53-10.02 7.65-10.92 5.12-.9 10.02 2.53 10.92 7.65.9 5.12-2.53 10.02-7.65 10.92Z" style="fill:url(#x)"/><path class="bg" d="m48.43 264.25-4.21-2.94 2.95-4.22-2.81-1.96-2.95 4.21-4.21-2.95-1.97 2.81 4.22 2.95-2.95 4.21 2.81 1.97 2.94-4.21 4.22 2.94 1.96-2.81z"/><path style="fill:url(#y)" d="m48.33 263.69-4.21-2.95 2.95-4.21-2.81-1.97-2.95 4.22-4.21-2.95-1.97 2.81 4.22 2.95-2.95 4.21 2.81 1.97 2.95-4.22 4.21 2.95 1.96-2.81z"/><path class="br" d="m41.41 259.34 2.95-4.21 2.48 1.73.23-.33-2.81-1.97-2.95 4.22-4.21-2.95-1.97 2.81.33.23 1.74-2.48 4.21 2.95z"/><path class="br" transform="rotate(-55.01 37.939 263.989)" d="M35.55 263.77h4.74v.4h-4.74z"/><path class="br" transform="rotate(-54.98 46.284 262.51)" d="M46.08 260.13h.4v4.74h-.4z"/><path d="M300.27 275.17c-7.72 0-14-6.28-14-14s6.28-14 14-14 14 6.28 14 14-6.28 14-14 14Z" style="fill:url(#a`)"/><circle class="bm" cx="300.27" cy="261.17" r="10"/><path d="M301.91 270.45c-5.12.9-10.02-2.53-10.93-7.65-.9-5.12 2.53-10.02 7.65-10.92 5.12-.9 10.02 2.53 10.92 7.65s-2.53 10.02-7.64 10.92Z" style="fill:url(#aa)"/><path class="bg" d="m306.97 264.25-4.22-2.94 2.95-4.22-2.81-1.96-2.95 4.21-4.21-2.95-1.97 2.81 4.22 2.95-2.95 4.21 2.81 1.97 2.95-4.21 4.21 2.94 1.97-2.81z"/><path class="b`" d="m306.87 263.69-4.22-2.95 2.95-4.21-2.81-1.97-2.94 4.22-4.22-2.95-1.96 2.81 4.21 2.95-2.95 4.21 2.81 1.97 2.95-4.22 4.21 2.95 1.97-2.81z"/><path class="br" d="m299.94 259.34 2.95-4.21 2.48 1.73.23-.33-2.81-1.97-2.94 4.22-4.22-2.95-1.96 2.81.33.23 1.73-2.48 4.21 2.95zM297.65 261.92l-2.72 3.88.33.23 2.72-3.88-.33-.23zM306.63 264.02l.24-.33-3.89-2.72-.23.34 3.88 2.71z"/><path class="bt" d="M290 210h-49.97c-8.84 0-15.83-7.32-18.54-15.74-6.87-21.34-26.87-36.78-50.5-36.78s-43.63 15.44-50.5 36.78c-2.71 8.41-9.7 15.74-18.54 15.74H52c-11.05 0-20-8.95-20-20v1c0 11.05 8.95 20 20 20h49.97c8.84 0 15.83-7.32 18.54-15.74 6.87-21.34 26.87-36.78 50.5-36.78s43.63 15.44 50.5 36.78c2.71 8.41 9.7 15.74 18.54 15.74h49.97c11.05 0 20-8.95 20-20v-1c0 11.05-8.95 20-20 20Z"/><path d="M171 140.53c-37.81 0-68.6 29.99-69.94 67.47h.9c8.3 0 14.34-7.21 16.63-14.35 7.34-22.83 28.4-38.17 52.4-38.17s45.06 15.34 52.4 38.17c2.3 7.14 8.33 14.35 16.63 14.35h.9c-1.33-37.48-32.13-67.47-69.94-67.47Z" style="fill:url(#ac)"/><path class="bo" transform="rotate(-31.56 116.308 124.1)" d="M114.79 80.17h3v87.85h-3z"/><path transform="rotate(-31.56 117.298 123.1)" style="fill:url(#ad)" d="M115.79 79.17h3v87.85h-3z"/><circle cx="171" cy="210.53" r="20" style="fill:url(#ae)"/><path d="M185.58 199.19c-2.83-4.62-8.29-7.76-14.58-7.76s-11.76 3.14-14.58 7.76c-1.47 2.41.03 3.14 2.76 1.89 3.41-1.57 7.47-2.48 11.82-2.48s8.41.91 11.82 2.48c2.72 1.25 4.23.52 2.76-1.89Z" style="fill:url(#af);opacity:.25;mix-blend-mode:screen"/><path d="M153.56 220.27c.22.39.45.78.69 1.15l35.79-16.96c-.14-.42-.29-.84-.45-1.26l-36.03 17.07Z" style="fill:#fff;opacity:.05"/><path class="br" d="m153.56 220.27 36.03-17.07c-.16-.41-.32-.83-.51-1.23-.19-.41-.42-.79-.63-1.18l-36.03 17.07c.16.41.32.83.51 1.23.19.41.42.79.63 1.18Z"/><path d="M240.03 205c-6.29 0-10.97-5.81-12.83-11.57-7.88-24.49-30.47-40.94-56.21-40.94s-48.33 16.45-56.21 40.94c-1.85 5.76-6.54 11.57-12.83 11.57H52c-7.72 0-14-6.28-14-14v-82.71c0-11.76 7.92-26.89 16.94-32.37C89.84 54.73 129.97 43.54 171 43.54s81.16 11.2 116.05 32.38C296.08 81.4 304 96.53 304 108.29V191c0 7.72-6.28 14-14 14h-49.97Z" style="opacity:.25;fill:url(#ag);mix-blend-mode:screen"/><path d="M53.64 77.91C88.93 56.72 129.51 45.53 171 45.53s82.07 11.2 117.36 32.38c2.89 1.74 5.67 4.44 8.11 7.7-2.73-4.15-6-7.62-9.42-9.7-34.9-21.19-75.03-32.38-116.05-32.38S89.84 54.73 54.94 75.91c-3.42 2.08-6.69 5.55-9.42 9.7 2.45-3.26 5.22-5.96 8.11-7.7Z" style="mix-blend-mode:screen;opacity:.3;fill:#fff"/></g></g></svg>